<svg width="303" height="237" viewBox="0 0 303 237" fill="none" xmlns="http://www.w3.org/2000/svg">
<g id="No Upcoming Trips">
<g id="Group 3">
<mask id="mask0_949_4971" style="mask-type:luminance" maskUnits="userSpaceOnUse" x="27" y="1" width="254" height="146">
<path id="Clip 2" fill-rule="evenodd" clip-rule="evenodd" d="M90.5053 27.5278H58.0963C53.8851 27.5278 50.4407 30.9834 50.4407 35.208C50.4407 39.4326 53.8851 42.8882 58.0963 42.8882H74.5896H79.4232C83.6344 42.8882 87.0788 46.345 87.0788 50.5696C87.0788 52.6808 86.2157 54.605 84.8277 55.992C83.4452 57.3856 81.5265 58.2509 79.4232 58.2509H69.1112H63.418H35.64C31.4288 58.2509 27.9844 61.7076 27.9844 65.9311C27.9844 70.1547 31.4288 73.6114 35.64 73.6114H55.5262C49.5228 87.7662 46.1982 103.34 46.1982 119.697C46.1982 125.631 46.637 131.463 47.4788 137.162C47.8303 139.543 48.2545 141.904 48.7504 144.239C63.1941 142.023 78.5154 140.239 94.5105 138.939L95.7139 140.04L96.8467 138.755C116.063 137.255 136.233 136.456 157.036 136.456C201.234 136.456 242.594 140.06 277.957 146.328C279.321 140.399 280.24 134.3 280.674 128.064C280.872 125.299 280.969 122.508 280.969 119.697C280.969 54.6509 228.417 1.9248 163.584 1.9248C135.953 1.9248 110.557 11.5035 90.5053 27.5278Z" fill="white"/>
</mask>
<g mask="url(#mask0_949_4971)">
<path id="Fill 1" fill-rule="evenodd" clip-rule="evenodd" d="M22.3887 151.926H286.568V-3.6709H22.3887V151.926Z" fill="#F1F2F7"/>
</g>
</g>
<g id="Group 6">
<mask id="mask1_949_4971" style="mask-type:luminance" maskUnits="userSpaceOnUse" x="0" y="57" width="21" height="17">
<path id="Clip 5" fill-rule="evenodd" clip-rule="evenodd" d="M7.7541 57.8936C3.48918 57.8936 0 61.4208 0 65.7294C0 70.038 3.48918 73.5652 7.7541 73.5652H12.394C16.6601 73.5652 20.1493 70.038 20.1493 65.7294C20.1493 61.4208 16.6601 57.8936 12.394 57.8936H7.7541Z" fill="white"/>
</mask>
<g mask="url(#mask1_949_4971)">
<path id="Fill 4" fill-rule="evenodd" clip-rule="evenodd" d="M-5.59717 79.1635H25.7461V52.2979H-5.59717V79.1635Z" fill="#F1F2F7"/>
</g>
</g>
<g id="Group 9">
<mask id="mask2_949_4971" style="mask-type:luminance" maskUnits="userSpaceOnUse" x="48" y="136" width="255" height="101">
<path id="Clip 8" fill-rule="evenodd" clip-rule="evenodd" d="M96.678 138.911L95.544 140.188L94.3407 139.093C78.35 140.386 63.0332 142.156 48.5918 144.36C59.8429 197.288 106.97 237.001 163.398 237.001C189.819 237.001 214.199 228.289 233.818 213.595H254.703C258.912 213.595 262.356 210.16 262.356 205.963C262.356 203.867 261.493 201.953 260.106 200.575C258.723 199.191 256.804 198.331 254.703 198.331H245.62C241.41 198.331 237.966 194.896 237.966 190.699C237.966 188.602 238.829 186.689 240.216 185.31C241.599 183.925 243.518 183.067 245.62 183.067H294.508C298.718 183.067 302.161 179.632 302.161 175.433C302.161 173.337 301.298 171.424 299.911 170.046C298.523 168.661 296.613 167.801 294.508 167.801H270.536C273.597 160.999 276.027 153.855 277.745 146.436C242.39 140.209 201.04 136.626 156.851 136.626C136.054 136.626 115.888 137.42 96.678 138.911Z" fill="white"/>
</mask>
<g mask="url(#mask2_949_4971)">
<path id="Fill 7" fill-rule="evenodd" clip-rule="evenodd" d="M42.9932 242.596H307.755V131.027H42.9932V242.596Z" fill="#E8EBF2"/>
</g>
</g>
<g id="Group 15">
<mask id="mask3_949_4971" style="mask-type:luminance" maskUnits="userSpaceOnUse" x="94" y="138" width="3" height="2">
<path id="Clip 14" fill-rule="evenodd" clip-rule="evenodd" d="M94.0298 138.653L95.1828 139.613L96.2686 138.492C95.5208 138.541 94.7719 138.595 94.0298 138.653Z" fill="white"/>
</mask>
<g mask="url(#mask3_949_4971)">
<path id="Fill 13" fill-rule="evenodd" clip-rule="evenodd" d="M88.4326 145.21H101.865V132.896H88.4326V145.21Z" fill="#F1F2F7"/>
</g>
</g>
<g id="Group 21">
<mask id="mask4_949_4971" style="mask-type:luminance" maskUnits="userSpaceOnUse" x="121" y="180" width="89" height="9">
<path id="Clip 20" fill-rule="evenodd" clip-rule="evenodd" d="M121.698 184.63C121.698 186.793 141.244 188.548 165.356 188.548C189.466 188.548 209.012 186.793 209.012 184.63C209.012 182.467 189.466 180.712 165.356 180.712C141.244 180.712 121.698 182.467 121.698 184.63Z" fill="white"/>
</mask>
<g mask="url(#mask4_949_4971)">
<path id="Fill 19" fill-rule="evenodd" clip-rule="evenodd" d="M116.104 194.146H214.611V175.116H116.104V194.146Z" fill="#D8DBEA"/>
</g>
</g>
<g id="Group 24">
<mask id="mask5_949_4971" style="mask-type:luminance" maskUnits="userSpaceOnUse" x="269" y="197" width="17" height="17">
<path id="Clip 23" fill-rule="evenodd" clip-rule="evenodd" d="M269.776 205.657C269.776 209.967 273.302 213.493 277.612 213.493C281.921 213.493 285.448 209.967 285.448 205.657C285.448 201.349 281.921 197.821 277.612 197.821C273.302 197.821 269.776 201.349 269.776 205.657Z" fill="white"/>
</mask>
<g mask="url(#mask5_949_4971)">
<path id="Fill 22" fill-rule="evenodd" clip-rule="evenodd" d="M264.179 219.088H291.044V192.223H264.179V219.088Z" fill="#E1E3EF"/>
</g>
</g>
<g id="Vector">
<path d="M165 128C166.326 128 167.598 127.473 168.536 126.536C169.473 125.598 170 124.326 170 123V108C170 106.674 169.473 105.402 168.536 104.464C167.598 103.527 166.326 103 165 103C163.674 103 162.402 103.527 161.464 104.464C160.527 105.402 160 106.674 160 108V123C160 124.326 160.527 125.598 161.464 126.536C162.402 127.473 163.674 128 165 128Z" fill="#5B679E"/>
<path fill-rule="evenodd" clip-rule="evenodd" d="M206.401 124.277C205.416 124.166 204.426 124.447 203.646 125.059C202.865 125.672 202.357 126.567 202.231 127.551C201.271 135.476 197.803 142.887 192.335 148.703C186.866 154.518 179.682 158.435 171.831 159.88C163.98 161.326 155.872 160.226 148.69 156.739C141.509 153.253 135.629 147.563 131.908 140.5H141.25C142.245 140.5 143.198 140.105 143.902 139.402C144.605 138.698 145 137.745 145 136.75C145 135.755 144.605 134.802 143.902 134.098C143.198 133.395 142.245 133 141.25 133H128.75C126.43 133.003 124.206 133.926 122.566 135.566C120.926 137.206 120.003 139.43 120 141.75V154.25C120 155.245 120.395 156.198 121.098 156.902C121.802 157.605 122.755 158 123.75 158C124.745 158 125.698 157.605 126.402 156.902C127.105 156.198 127.5 155.245 127.5 154.25V147.709C132.551 155.412 139.848 161.376 148.402 164.794C156.955 168.211 166.353 168.917 175.321 166.815C184.29 164.713 192.395 159.905 198.54 153.042C204.684 146.18 208.571 137.594 209.673 128.449C209.732 127.96 209.694 127.465 209.562 126.991C209.43 126.516 209.205 126.073 208.901 125.685C208.597 125.298 208.22 124.974 207.791 124.732C207.362 124.491 206.89 124.336 206.401 124.277ZM206.25 88C205.256 88.0003 204.302 88.3955 203.599 89.0987C202.895 89.8019 202.5 90.7555 202.5 91.75V98.2909C197.449 90.5879 190.152 84.6237 181.598 81.2063C173.044 77.7889 163.647 77.0834 154.678 79.1854C145.71 81.2874 137.605 86.0954 131.46 92.9578C125.316 99.8203 121.429 108.406 120.327 117.551C120.268 118.04 120.306 118.535 120.438 119.009C120.57 119.484 120.795 119.927 121.099 120.315C121.403 120.702 121.78 121.026 122.209 121.268C122.638 121.509 123.11 121.664 123.599 121.723C123.749 121.741 123.901 121.75 124.053 121.75C124.968 121.749 125.852 121.412 126.537 120.804C127.221 120.196 127.659 119.358 127.769 118.449C128.729 110.524 132.197 103.113 137.665 97.2973C143.134 91.4814 150.318 87.5651 158.169 86.1194C166.02 84.6736 174.128 85.7742 181.31 89.2606C188.491 92.747 194.371 98.4368 198.092 105.5H188.75C187.755 105.5 186.802 105.895 186.098 106.598C185.395 107.302 185 108.255 185 109.25C185 110.245 185.395 111.198 186.098 111.902C186.802 112.605 187.755 113 188.75 113H201.25C203.57 112.997 205.794 112.074 207.434 110.434C209.074 108.794 209.997 106.57 210 104.25V91.75C210 90.7555 209.605 89.8019 208.901 89.0987C208.198 88.3955 207.244 88.0003 206.25 88Z" fill="#B3B8D1"/>
<path d="M160 138C160 137.011 160.293 136.044 160.843 135.222C161.392 134.4 162.173 133.759 163.087 133.381C164 133.002 165.006 132.903 165.975 133.096C166.945 133.289 167.836 133.765 168.536 134.464C169.235 135.164 169.711 136.055 169.904 137.025C170.097 137.994 169.998 139 169.619 139.913C169.241 140.827 168.6 141.608 167.778 142.157C166.956 142.707 165.989 143 165 143C163.674 143 162.402 142.473 161.464 141.535C160.527 140.598 160 139.326 160 138Z" fill="#5B679E"/>
</g>
</g>
</svg>
