<svg width="60" height="60" viewBox="0 0 60 60" fill="none" xmlns="http://www.w3.org/2000/svg">
<g clip-path="url(#clip0_945_3632)">
<path d="M53.9853 10.9863H7.18112C6.54967 10.9867 5.9442 11.2377 5.49771 11.6842C5.05121 12.1307 4.8002 12.7362 4.7998 13.3676V56.3109C4.8002 56.9424 5.05121 57.5478 5.49771 57.9943C5.9442 58.4408 6.54967 58.6918 7.18112 58.6922H53.9853C54.6168 58.6919 55.2223 58.4409 55.6689 57.9944C56.1154 57.5479 56.3665 56.9424 56.3669 56.3109V13.3676C56.3665 12.7362 56.1154 12.1306 55.6689 11.6841C55.2223 11.2376 54.6168 10.9867 53.9853 10.9863Z" fill="#C6C6C6"/>
<path d="M50.9045 43.7697H10.2631C8.94807 43.7697 7.88184 42.7035 7.88184 41.3884V3.44576C7.88184 2.13068 8.94807 1.06445 10.2631 1.06445H50.9045C52.2196 1.06445 53.2859 2.13068 53.2859 3.44576V41.3884C53.2859 42.7035 52.2196 43.7697 50.9045 43.7697Z" fill="#F9F9F9"/>
<path d="M8.63577 42.1421V4.1997C8.63577 2.88462 9.702 1.81839 11.0171 1.81839H51.6585C52.123 1.81839 52.5548 1.95339 52.9209 2.18331C52.5 1.51199 51.7554 1.06445 50.9045 1.06445H10.2631C8.94807 1.06445 7.88184 2.13068 7.88184 3.44576V41.3884C7.88184 42.2394 8.32938 42.9838 9.00069 43.405C8.77077 43.0386 8.63577 42.6068 8.63577 42.1423V42.1421Z" fill="url(#paint0_linear_945_3632)"/>
<path d="M45.9038 9.08105H15.2637V10.8272H45.9038V9.08105ZM45.9038 15.7484H15.2637V17.4946H45.9038V15.7484ZM45.9038 22.4173H15.2637V24.1634H45.9038V22.4173ZM45.9038 29.0847H15.2637V30.8311H45.9038V29.0847Z" fill="white"/>
<path d="M18.9141 23.4492L26.6135 31.1489H18.9141V23.4492Z" fill="url(#paint1_linear_945_3632)"/>
<path d="M56.3666 31.7835V14.068L53.2852 10.9863V31.7832H56.3666V31.7835Z" fill="#C6C6C6"/>
<path d="M59.9761 33.3862L56.6562 56.8875C56.4902 58.0624 55.4847 58.9356 54.2983 58.9356H6.86826C5.68178 58.9356 4.67629 58.0624 4.5103 56.8875L0.0238289 25.1315C-0.178548 23.6979 0.933911 22.417 2.38178 22.417H17.0292C18.2156 22.417 19.2211 23.2902 19.3871 24.4649L19.9751 28.6235C20.141 29.7985 21.1465 30.6717 22.333 30.6717H57.6187C59.066 30.6717 60.1787 31.9526 59.9764 33.3862H59.9761Z" fill="url(#paint2_linear_945_3632)"/>
<path d="M48.2133 48.4531H12.9537C12.7604 48.4531 12.5738 48.3825 12.4288 48.2547C12.2838 48.1269 12.1904 47.9507 12.1661 47.7589L11.7249 44.2662C11.7109 44.1544 11.7208 44.041 11.754 43.9334C11.7871 43.8258 11.8428 43.7264 11.9173 43.642C11.9918 43.5575 12.0834 43.4898 12.186 43.4435C12.2886 43.3971 12.3999 43.3731 12.5125 43.373H48.6544C48.767 43.3731 48.8784 43.3971 48.981 43.4435C49.0836 43.4898 49.1752 43.5575 49.2497 43.642C49.3242 43.7264 49.3798 43.8258 49.413 43.9334C49.4462 44.041 49.4561 44.1544 49.4421 44.2662L49.0009 47.7589C48.9766 47.9507 48.8831 48.1269 48.7381 48.2547C48.5932 48.3825 48.4066 48.4531 48.2133 48.4531Z" fill="#D5D5D5"/>
</g>
<defs>
<linearGradient id="paint0_linear_945_3632" x1="31.9802" y1="23.8108" x2="1.86463" y2="-6.30498" gradientUnits="userSpaceOnUse">
<stop stop-color="white"/>
</linearGradient>
<linearGradient id="paint1_linear_945_3632" x1="24.001" y1="32.3843" x2="14.6944" y2="23.0779" gradientUnits="userSpaceOnUse">
<stop stop-color="#C2CECE" stop-opacity="0"/>
<stop offset="0.179" stop-color="#AFBCBC" stop-opacity="0.179"/>
<stop offset="1" stop-color="#5B6A6A"/>
</linearGradient>
<linearGradient id="paint2_linear_945_3632" x1="30" y1="22.417" x2="30" y2="58.9356" gradientUnits="userSpaceOnUse">
<stop stop-color="#EEF0F4"/>
<stop offset="0.927" stop-color="#E4E4E4"/>
</linearGradient>
<clipPath id="clip0_945_3632">
<rect width="60" height="60" fill="white"/>
</clipPath>
</defs>
</svg>
