<svg width="456" height="378" viewBox="0 0 456 378" fill="none" xmlns="http://www.w3.org/2000/svg">
<g id="No Results">
<g id="circle">
<path id="Stroke 1" d="M18.2959 173.874V177.718" stroke="#D2D8DF" stroke-width="2.921" stroke-linecap="round"/>
<g id="Group 8">
<path id="Stroke 2" d="M9.6709 175.957L12.8091 179.191" stroke="#D2D8DF" stroke-width="2.921" stroke-linecap="round"/>
<path id="Stroke 4" d="M6 184.564H10.4374" stroke="#D2D8DF" stroke-width="2.921" stroke-linecap="round"/>
<path id="Stroke 6" d="M9.31055 193.327L12.4488 190.093" stroke="#D2D8DF" stroke-width="2.921" stroke-linecap="round"/>
</g>
<path id="Stroke 9" d="M18.2959 194.377V190.532" stroke="#D2D8DF" stroke-width="2.921" stroke-linecap="round"/>
<path id="Stroke 10" d="M24.697 191.809L22.1367 189.249" stroke="#D2D8DF" stroke-width="2.921" stroke-linecap="round"/>
<path id="Stroke 11" d="M29.818 185.405H25.9775" stroke="#D2D8DF" stroke-width="2.921" stroke-linecap="round"/>
<path id="Stroke 12" d="M27.2576 176.438L24.6973 178.998" stroke="#D2D8DF" stroke-width="2.921" stroke-linecap="round"/>
<path id="Stroke 13" d="M224.402 6V8.56032" stroke="#D2D8DF" stroke-width="2.921" stroke-linecap="round"/>
<path id="Stroke 15" d="M216.721 13.6904H219.281" stroke="#D2D8DF" stroke-width="2.921" stroke-linecap="round"/>
<path id="Stroke 16" d="M224.402 21.3748V18.8145" stroke="#D2D8DF" stroke-width="2.921" stroke-linecap="round"/>
<path id="Stroke 17" d="M230.803 13.6904H228.243" stroke="#D2D8DF" stroke-width="2.921" stroke-linecap="round"/>
<path id="Stroke 18" d="M75.9023 113.646V117.49" stroke="#D2D8DF" stroke-width="2.921" stroke-linecap="round"/>
<path id="Stroke 19" d="M64.3828 125.177H68.2233" stroke="#D2D8DF" stroke-width="2.921" stroke-linecap="round"/>
<path id="Stroke 20" d="M75.9023 135.428V131.584" stroke="#D2D8DF" stroke-width="2.921" stroke-linecap="round"/>
<path id="Stroke 21" d="M86.1442 125.177H82.3037" stroke="#D2D8DF" stroke-width="2.921" stroke-linecap="round"/>
<g id="Group 42">
<path id="Stroke 22" d="M351.463 253.374C354.523 253.374 357.004 255.858 357.004 258.922C357.004 261.986 354.523 264.469 351.463 264.469C348.404 264.469 345.923 261.986 345.923 258.922" stroke="#D2D8DF" stroke-width="2.921" stroke-linecap="round"/>
<path id="Fill 26" fill-rule="evenodd" clip-rule="evenodd" d="M376.819 203.043C380.109 202.016 385.152 197.988 386.319 193.655C387.378 197.486 391.815 202.016 395.819 202.359C391.312 203.956 387.003 208.702 386.319 212.43C385.854 208.63 379.894 203.597 376.819 203.043Z" fill="#EBECEE"/>
<path id="Fill 28" fill-rule="evenodd" clip-rule="evenodd" d="M39.126 251.666C40.7714 251.152 43.2917 249.139 43.8753 246.973C44.4046 248.887 46.6227 251.152 48.6246 251.324C46.3717 252.122 44.2176 254.495 43.8753 256.359C43.6427 254.459 40.6627 251.942 39.126 251.666Z" fill="#EBECEE"/>
<path id="Fill 30" fill-rule="evenodd" clip-rule="evenodd" d="M69.6616 73.4042C69.6616 75.7808 67.7379 77.7059 65.3655 77.7059C62.9919 77.7059 61.0693 75.7808 61.0693 73.4042C61.0693 71.0287 62.9919 69.1025 65.3655 69.1025C67.7379 69.1025 69.6616 71.0287 69.6616 73.4042Z" fill="#D1D8DF"/>
<path id="Fill 32" fill-rule="evenodd" clip-rule="evenodd" d="M356.538 84.9554C356.538 88.9262 353.322 92.1451 349.357 92.1451C345.391 92.1451 342.176 88.9262 342.176 84.9554C342.176 80.9845 345.391 77.7656 349.357 77.7656C353.322 77.7656 356.538 80.9845 356.538 84.9554Z" fill="#EBECEE"/>
<path id="Fill 34" fill-rule="evenodd" clip-rule="evenodd" d="M456 65.4718C456 68.6222 453.451 71.1751 450.305 71.1751C447.159 71.1751 444.609 68.6222 444.609 65.4718C444.609 62.3215 447.159 59.7686 450.305 59.7686C453.451 59.7686 456 62.3215 456 65.4718Z" fill="#EBECEE"/>
<path id="Stroke 36" fill-rule="evenodd" clip-rule="evenodd" d="M149.953 331.838C149.953 333.824 148.346 335.433 146.362 335.433C144.38 335.433 142.772 333.824 142.772 331.838C142.772 329.852 144.38 328.242 146.362 328.242C148.346 328.242 149.953 329.852 149.953 331.838Z" stroke="#D2D8DF" stroke-width="2.921" stroke-linecap="round"/>
<path id="Stroke 38" fill-rule="evenodd" clip-rule="evenodd" d="M147.817 45.7685C147.817 48.1451 145.893 50.0701 143.521 50.0701C141.148 50.0701 139.225 48.1451 139.225 45.7685C139.225 43.3929 141.148 41.4668 143.521 41.4668C145.893 41.4668 147.817 43.3929 147.817 45.7685Z" stroke="#D2D8DF" stroke-width="2.921" stroke-linecap="round"/>
<path id="Stroke 40" fill-rule="evenodd" clip-rule="evenodd" d="M257.401 371.651C254.655 372.697 251.583 371.316 250.539 368.568C249.494 365.819 250.872 362.742 253.619 361.697C256.363 360.651 259.435 362.031 260.48 364.78C261.525 367.529 260.146 370.605 257.401 371.651Z" stroke="#D2D8DF" stroke-width="2.921" stroke-linecap="round"/>
</g>
</g>
<g id="search">
<g id="documents">
<path id="Fill 1" fill-rule="evenodd" clip-rule="evenodd" d="M255.766 269.984H150.787C143.398 269.984 137.35 263.912 137.35 256.49V106.631C137.35 99.2099 143.398 93.1406 150.787 93.1406H255.766C263.158 93.1406 269.206 99.2099 269.206 106.631V256.49C269.206 263.912 263.158 269.984 255.766 269.984Z" fill="#E0E2EE"/>
<path id="Fill 3" fill-rule="evenodd" clip-rule="evenodd" d="M246.807 276.391H141.828C134.439 276.391 128.391 270.319 128.391 262.897V113.039C128.391 105.617 134.439 99.5479 141.828 99.5479H246.807C254.199 99.5479 260.247 105.617 260.247 113.039V262.897C260.247 270.319 254.199 276.391 246.807 276.391Z" fill="#E8EBF2"/>
<path id="Fill 5" fill-rule="evenodd" clip-rule="evenodd" d="M238.09 281.448H132.894C125.489 281.448 119.429 275.401 119.429 268.01V118.772C119.429 111.381 125.489 105.337 132.894 105.337H238.09C245.497 105.337 251.558 111.381 251.558 118.772V268.01C251.558 275.401 245.497 281.448 238.09 281.448Z" fill="#D8DBEA"/>
<path id="Fill 8" fill-rule="evenodd" clip-rule="evenodd" d="M238.09 281.448H132.894C125.489 281.448 119.429 275.401 119.429 268.01V118.772C119.429 111.381 125.489 105.337 132.894 105.337H238.09C245.497 105.337 251.558 111.381 251.558 118.772V268.01C251.558 275.401 245.497 281.448 238.09 281.448Z" fill="#F1F2F7"/>
<path id="Fill 11" fill-rule="evenodd" clip-rule="evenodd" d="M222.926 150.804H145.226C143.007 150.804 141.19 149.074 141.19 146.961C141.19 144.845 143.007 143.115 145.226 143.115H222.926C225.145 143.115 226.961 144.845 226.961 146.961C226.961 149.074 225.145 150.804 222.926 150.804Z" fill="#E0E2EE"/>
<path id="Fill 13" fill-rule="evenodd" clip-rule="evenodd" d="M222.926 173.875H145.226C143.007 173.875 141.19 172.146 141.19 170.032C141.19 167.916 143.007 166.187 145.226 166.187H222.926C225.145 166.187 226.961 167.916 226.961 170.032C226.961 172.146 225.145 173.875 222.926 173.875Z" fill="#E0E2EE"/>
<path id="Fill 15" fill-rule="evenodd" clip-rule="evenodd" d="M222.926 196.941H145.226C143.007 196.941 141.19 195.211 141.19 193.098C141.19 190.985 143.007 189.252 145.226 189.252H222.926C225.145 189.252 226.961 190.985 226.961 193.098C226.961 195.211 225.145 196.941 222.926 196.941Z" fill="#E0E2EE"/>
<path id="Fill 17" fill-rule="evenodd" clip-rule="evenodd" d="M222.926 220.006H145.226C143.007 220.006 141.19 218.276 141.19 216.163C141.19 214.047 143.007 212.317 145.226 212.317H222.926C225.145 212.317 226.961 214.047 226.961 216.163C226.961 218.276 225.145 220.006 222.926 220.006Z" fill="#E0E2EE"/>
<path id="Fill 19" fill-rule="evenodd" clip-rule="evenodd" d="M185.784 243.075H145.243C143.015 243.075 141.19 241.345 141.19 239.232C141.19 237.116 143.015 235.386 145.243 235.386H185.784C188.012 235.386 189.836 237.116 189.836 239.232C189.836 241.345 188.012 243.075 185.784 243.075Z" fill="#E0E2EE"/>
</g>
<g id="search_2">
<path id="Fill 21" fill-rule="evenodd" clip-rule="evenodd" d="M267.614 213.262C252.077 228.812 228.024 230.566 210.562 218.561C208.33 216.999 206.206 215.244 204.225 213.262C203.205 212.245 202.244 211.195 201.339 210.089C199.527 207.882 197.941 205.528 196.641 203.095C194.35 198.987 192.793 194.627 191.943 190.121C189.2 175.989 193.301 160.778 204.225 149.848C215.175 138.886 230.373 134.807 244.493 137.526C248.992 138.403 253.351 139.962 257.456 142.228C259.89 143.558 262.209 145.146 264.418 146.959C265.519 147.862 266.568 148.828 267.585 149.848C269.569 151.831 271.348 153.953 272.879 156.19C284.878 173.664 283.122 197.741 267.614 213.262Z" fill="white" fill-opacity="0.1"/>
<path id="Fill 23" fill-rule="evenodd" clip-rule="evenodd" d="M263.269 210.199C247.105 226.383 220.91 226.38 204.743 210.199C188.597 194.037 188.597 167.812 204.764 151.631C220.91 135.468 247.105 135.468 263.251 151.631C279.415 167.812 279.415 194.037 263.269 210.199ZM271.564 143.317C250.816 122.548 217.195 122.548 196.447 143.317C175.702 164.083 175.684 197.76 196.429 218.53C215.312 237.426 244.909 239.13 265.726 223.615C267.759 222.098 269.717 220.397 271.585 218.53C273.45 216.66 275.149 214.7 276.662 212.665C292.162 191.823 290.444 162.217 271.564 143.317Z" fill="#E0E2EE"/>
<path id="Fill 25" fill-rule="evenodd" clip-rule="evenodd" d="M353.216 296.822L352.345 297.694C346.583 303.465 337.146 303.465 331.38 297.694L278.171 244.43L300.007 222.571L353.216 275.835C358.982 281.607 358.982 291.05 353.216 296.822Z" fill="#98C0F6"/>
<path id="Fill 27" fill-rule="evenodd" clip-rule="evenodd" d="M277.808 211.037L293.532 226.777L282.369 237.948L266.648 222.208C268.723 220.66 270.718 218.924 272.627 217.019C274.53 215.114 276.264 213.114 277.808 211.037Z" fill="#E0E2EE"/>
<path id="Fill 29" fill-rule="evenodd" clip-rule="evenodd" d="M352.419 275.179L330.722 296.895L326.815 292.982L348.51 271.266L352.419 275.179Z" fill="#385B8B"/>
<path id="Fill 31" fill-rule="evenodd" clip-rule="evenodd" d="M301.214 223.323L278.922 245.637L275.61 242.322L297.902 220.008L301.214 223.323Z" fill="#385B8B"/>
<path id="Fill 33" fill-rule="evenodd" clip-rule="evenodd" d="M252.566 146.062L197.899 200.783C195.84 197.089 194.44 193.17 193.679 189.119L240.913 141.835C244.958 142.626 248.876 144.025 252.566 146.062Z" fill="white" fill-opacity="0.5"/>
<path id="Fill 35" fill-rule="evenodd" clip-rule="evenodd" d="M270.489 159.069L211.388 214.879C209.271 213.485 207.257 211.915 205.378 210.141C204.411 209.227 203.496 208.291 202.641 207.302L262.462 150.806C263.509 151.617 264.504 152.481 265.468 153.394C267.347 155.168 269.037 157.067 270.489 159.069Z" fill="white" fill-opacity="0.5"/>
</g>
</g>
</g>
</svg>
